{
	"asset":{
		"generator":"Khronos glTF Blender I/O v3.6.27",
		"version":"2.0"
	},
	"scene":0,
	"scenes":[
		{
			"name":"Scene",
			"nodes":[
				0
			]
		}
	],
	"nodes":[
		{
			"mesh":0,
			"name":"defaultMaterial_4",
			"scale":[
				0.123300664499402046,
				0.123300664499402046,
				0.123300664499402046
			],
			"translation":[
				0,
				-0.8612010478973389,
				0
			]
		}
	],
	"materials":[
		{
			"doubleSided":true,
			"name":"FIFAEMBLEM",
			"pbrMetallicRoughness":{
				"baseColorTexture":{
					"index":0
				},
				"metallicRoughnessTexture":{
					"index":1
				}
			}
		}
	],
	"meshes":[
		{
			"name":"005-0-5",
			"primitives":[
				{
					"attributes":{
						"POSITION":0,
						"NORMAL":1,
						"TEXCOORD_0":2
					},
					"indices":3,
					"material":0
				}
			]
		}
	],
	"textures":[
		{
			"sampler":0,
			"source":0
		},
		{
			"sampler":0,
			"source":1
		}
	],
	"images":[
		{
			"mimeType":"image/png",
			"name":"FIFAEMBLEM_albedo",
			"uri":"texture/FIFAEMBLEM_albedo.png"
		},
		{
			"mimeType":"image/png",
			"name":"FIFAEMBLEM_metallic.png-FIFAEMBLEM_roughness.png",
			"uri":"texture/FIFAEMBLEM_metallic_png-FIFAEMBLEM_roughness_png.png"
		}
	],
	"accessors":[
		{
			"bufferView":0,
			"componentType":5126,
			"count":47348,
			"max":[
				11.633987426757812,
				67.16268920898438,
				20.632144927978516
			],
			"min":[
				-10.555282592773438,
				19.52783966064453,
				-22.380701065063477
			],
			"type":"VEC3"
		},
		{
			"bufferView":1,
			"componentType":5126,
			"count":47348,
			"type":"VEC3"
		},
		{
			"bufferView":2,
			"componentType":5126,
			"count":47348,
			"type":"VEC2"
		},
		{
			"bufferView":3,
			"componentType":5123,
			"count":278784,
			"type":"SCALAR"
		}
	],
	"bufferViews":[
		{
			"buffer":0,
			"byteLength":568176,
			"byteOffset":0,
			"target":34962
		},
		{
			"buffer":0,
			"byteLength":568176,
			"byteOffset":568176,
			"target":34962
		},
		{
			"buffer":0,
			"byteLength":378784,
			"byteOffset":1136352,
			"target":34962
		},
		{
			"buffer":0,
			"byteLength":557568,
			"byteOffset":1515136,
			"target":34963
		}
	],
	"samplers":[
		{
			"magFilter":9729,
			"minFilter":9987
		}
	],
	"buffers":[
		{
			"byteLength":2072704,
			"uri":"cwww.bin"
		}
	]
}
