{
	"asset":{
		"generator":"Khronos glTF Blender I/O v3.6.27",
		"version":"2.0"
	},
	"extensionsUsed":[
		"KHR_materials_transmission",
		"KHR_materials_emissive_strength",
		"KHR_materials_ior"
	],
	"scene":0,
	"scenes":[
		{
			"name":"Scene",
			"nodes":[
				0,
				1,
				2,
				3,
				4
			]
		}
	],
	"nodes":[
		{
			"mesh":0,
			"name":"path0",
			"rotation":[
				0.7071068286895752,
				0,
				0,
				0.7071068286895752
			],
			"scale":[
				29.980321884155273,
				29.980321884155273,
				29.980321884155273
			],
			"translation":[
				0,
				0.032516684383153915,
				0
			]
		},
		{
			"mesh":1,
			"name":"path1",
			"rotation":[
				0.7071068286895752,
				0,
				0,
				0.7071068286895752
			],
			"scale":[
				29.980321884155273,
				29.980321884155273,
				29.980321884155273
			],
			"translation":[
				0,
				0.032516684383153915,
				0
			]
		},
		{
			"mesh":2,
			"name":"path2",
			"rotation":[
				0.7071068286895752,
				0,
				0,
				0.7071067690849304
			],
			"scale":[
				28.790103912353516,
				28.790103912353516,
				28.790103912353516
			],
			"translation":[
				0.046219415962696075,
				0.1018456220626831,
				0
			]
		},
		{
			"mesh":3,
			"name":"path3",
			"rotation":[
				0.7071068286895752,
				0,
				0,
				0.7071068286895752
			],
			"scale":[
				24.278383255004883,
				7.385886192321777,
				24.278383255004883
			],
			"translation":[
				1.5898202657699585,
				1.0160226821899414,
				-0.09271301329135895
			]
		},
		{
			"mesh":4,
			"name":"path4",
			"rotation":[
				0.7071068286895752,
				0,
				0,
				0.7071068286895752
			],
			"scale":[
				29.980321884155273,
				29.980321884155273,
				29.980321884155273
			],
			"translation":[
				0,
				0.032516684383153915,
				0
			]
		}
	],
	"materials":[
		{
			"doubleSided":true,
			"emissiveFactor":[
				1,
				1,
				1
			],
			"extensions":{
				"KHR_materials_transmission":{
					"transmissionFactor":1
				},
				"KHR_materials_emissive_strength":{
					"emissiveStrength":100
				},
				"KHR_materials_ior":{
					"ior":1.4500000476837158
				}
			},
			"name":"Material.005",
			"pbrMetallicRoughness":{
				"baseColorFactor":[
					0.800000011920929,
					0.800000011920929,
					0.800000011920929,
					1
				],
				"metallicFactor":0,
				"roughnessFactor":0.15513627231121063
			}
		},
		{
			"doubleSided":true,
			"emissiveFactor":[
				1,
				1,
				1
			],
			"extensions":{
				"KHR_materials_transmission":{
					"transmissionFactor":1
				},
				"KHR_materials_emissive_strength":{
					"emissiveStrength":100
				},
				"KHR_materials_ior":{
					"ior":1.4500000476837158
				}
			},
			"name":"Material.002",
			"pbrMetallicRoughness":{
				"baseColorFactor":[
					0.800000011920929,
					0.800000011920929,
					0.800000011920929,
					1
				],
				"metallicFactor":0,
				"roughnessFactor":0.15513627231121063
			}
		},
		{
			"doubleSided":true,
			"emissiveFactor":[
				1,
				1,
				1
			],
			"extensions":{
				"KHR_materials_transmission":{
					"transmissionFactor":1
				},
				"KHR_materials_emissive_strength":{
					"emissiveStrength":100
				},
				"KHR_materials_ior":{
					"ior":1.4500000476837158
				}
			},
			"name":"Material.004",
			"pbrMetallicRoughness":{
				"baseColorFactor":[
					0.800000011920929,
					0.800000011920929,
					0.800000011920929,
					1
				],
				"metallicFactor":0,
				"roughnessFactor":0.15513627231121063
			}
		},
		{
			"doubleSided":true,
			"name":"SVGMat.011",
			"pbrMetallicRoughness":{
				"baseColorFactor":[
					0.8549926280975342,
					0.6653872728347778,
					0.19806931912899017,
					1
				],
				"metallicFactor":0,
				"roughnessFactor":0.4000000059604645
			}
		}
	],
	"meshes":[
		{
			"name":"path0.001",
			"primitives":[
				{
					"attributes":{
						"POSITION":0,
						"NORMAL":1,
						"TEXCOORD_0":2
					},
					"indices":3,
					"material":0
				}
			]
		},
		{
			"name":"path1.001",
			"primitives":[
				{
					"attributes":{
						"POSITION":4,
						"NORMAL":5,
						"TEXCOORD_0":6
					},
					"indices":7,
					"material":1
				}
			]
		},
		{
			"name":"path2.001",
			"primitives":[
				{
					"attributes":{
						"POSITION":8,
						"NORMAL":9,
						"TEXCOORD_0":10
					},
					"indices":11,
					"material":2
				}
			]
		},
		{
			"name":"path3.001",
			"primitives":[
				{
					"attributes":{
						"POSITION":12,
						"NORMAL":13,
						"TEXCOORD_0":14
					},
					"indices":15,
					"material":0
				}
			]
		},
		{
			"name":"path4.001",
			"primitives":[
				{
					"attributes":{
						"POSITION":16,
						"NORMAL":17,
						"TEXCOORD_0":18
					},
					"indices":19,
					"material":3
				}
			]
		}
	],
	"accessors":[
		{
			"bufferView":0,
			"componentType":5126,
			"count":2713,
			"max":[
				0.09217680990695953,
				0,
				-0.046122364699840546
			],
			"min":[
				0.03279588371515274,
				0,
				-0.09424085915088654
			],
			"type":"VEC3"
		},
		{
			"bufferView":1,
			"componentType":5126,
			"count":2713,
			"type":"VEC3"
		},
		{
			"bufferView":2,
			"componentType":5126,
			"count":2713,
			"type":"VEC2"
		},
		{
			"bufferView":3,
			"componentType":5123,
			"count":8133,
			"type":"SCALAR"
		},
		{
			"bufferView":4,
			"componentType":5126,
			"count":2472,
			"max":[
				0.09107007831335068,
				0,
				-0.044573575258255005
			],
			"min":[
				0.020674988627433777,
				0,
				-0.09726623445749283
			],
			"type":"VEC3"
		},
		{
			"bufferView":5,
			"componentType":5126,
			"count":2472,
			"type":"VEC3"
		},
		{
			"bufferView":6,
			"componentType":5126,
			"count":2472,
			"type":"VEC2"
		},
		{
			"bufferView":7,
			"componentType":5123,
			"count":7392,
			"type":"SCALAR"
		},
		{
			"bufferView":8,
			"componentType":5126,
			"count":1369,
			"max":[
				0.090585857629776,
				0,
				-0.0417938157916069
			],
			"min":[
				0.021417753770947456,
				0,
				-0.09243013709783554
			],
			"type":"VEC3"
		},
		{
			"bufferView":9,
			"componentType":5126,
			"count":1369,
			"type":"VEC3"
		},
		{
			"bufferView":10,
			"componentType":5126,
			"count":1369,
			"type":"VEC2"
		},
		{
			"bufferView":11,
			"componentType":5123,
			"count":4083,
			"type":"SCALAR"
		},
		{
			"bufferView":12,
			"componentType":5126,
			"count":3930,
			"max":[
				0.027094319462776184,
				0,
				0.008440122939646244
			],
			"min":[
				-0.028798799961805344,
				0,
				-0.010939961299300194
			],
			"type":"VEC3"
		},
		{
			"bufferView":13,
			"componentType":5126,
			"count":3930,
			"type":"VEC3"
		},
		{
			"bufferView":14,
			"componentType":5126,
			"count":3930,
			"type":"VEC2"
		},
		{
			"bufferView":15,
			"componentType":5123,
			"count":11676,
			"type":"SCALAR"
		},
		{
			"bufferView":16,
			"componentType":5126,
			"count":5773,
			"max":[
				0.09218942373991013,
				0,
				-0.04611301049590111
			],
			"min":[
				0.032635465264320374,
				0,
				-0.09443452954292297
			],
			"type":"VEC3"
		},
		{
			"bufferView":17,
			"componentType":5126,
			"count":5773,
			"type":"VEC3"
		},
		{
			"bufferView":18,
			"componentType":5126,
			"count":5773,
			"type":"VEC2"
		},
		{
			"bufferView":19,
			"componentType":5123,
			"count":16431,
			"type":"SCALAR"
		}
	],
	"bufferViews":[
		{
			"buffer":0,
			"byteLength":32556,
			"byteOffset":0,
			"target":34962
		},
		{
			"buffer":0,
			"byteLength":32556,
			"byteOffset":32556,
			"target":34962
		},
		{
			"buffer":0,
			"byteLength":21704,
			"byteOffset":65112,
			"target":34962
		},
		{
			"buffer":0,
			"byteLength":16266,
			"byteOffset":86816,
			"target":34963
		},
		{
			"buffer":0,
			"byteLength":29664,
			"byteOffset":103084,
			"target":34962
		},
		{
			"buffer":0,
			"byteLength":29664,
			"byteOffset":132748,
			"target":34962
		},
		{
			"buffer":0,
			"byteLength":19776,
			"byteOffset":162412,
			"target":34962
		},
		{
			"buffer":0,
			"byteLength":14784,
			"byteOffset":182188,
			"target":34963
		},
		{
			"buffer":0,
			"byteLength":16428,
			"byteOffset":196972,
			"target":34962
		},
		{
			"buffer":0,
			"byteLength":16428,
			"byteOffset":213400,
			"target":34962
		},
		{
			"buffer":0,
			"byteLength":10952,
			"byteOffset":229828,
			"target":34962
		},
		{
			"buffer":0,
			"byteLength":8166,
			"byteOffset":240780,
			"target":34963
		},
		{
			"buffer":0,
			"byteLength":47160,
			"byteOffset":248948,
			"target":34962
		},
		{
			"buffer":0,
			"byteLength":47160,
			"byteOffset":296108,
			"target":34962
		},
		{
			"buffer":0,
			"byteLength":31440,
			"byteOffset":343268,
			"target":34962
		},
		{
			"buffer":0,
			"byteLength":23352,
			"byteOffset":374708,
			"target":34963
		},
		{
			"buffer":0,
			"byteLength":69276,
			"byteOffset":398060,
			"target":34962
		},
		{
			"buffer":0,
			"byteLength":69276,
			"byteOffset":467336,
			"target":34962
		},
		{
			"buffer":0,
			"byteLength":46184,
			"byteOffset":536612,
			"target":34962
		},
		{
			"buffer":0,
			"byteLength":32862,
			"byteOffset":582796,
			"target":34963
		}
	],
	"buffers":[
		{
			"byteLength":615660,
			"uri":"gxr%20logo.bin"
		}
	]
}
