{
	"asset":{
		"generator":"Khronos glTF Blender I/O v3.6.27",
		"version":"2.0"
	},
	"extensionsUsed":[
		"KHR_materials_transmission",
		"KHR_materials_ior",
		"KHR_materials_specular"
	],
	"scene":0,
	"scenes":[
		{
			"name":"Scene",
			"nodes":[
				0,
				1
			]
		}
	],
	"nodes":[
		{
			"mesh":0,
			"name":"Cylinder.005",
			"scale":[
				0.3,
				0.3,
				0.3
			],
			"translation":[
				0,
				1.8825470209121704,
				0
			]
		},
		{
			"name":"AltTabLightController.023",
			"rotation":[
				0,
				-0.6409582495689392,
				0,
				0.767575740814209
			],
			"scale":[
				1.4000624418258667,
				0.9843749403953552,
				0.9054121375083923
			],
			"translation":[
				2.5837554931640625,
				-2.6804187297821045,
				0.603485107421875
			]
		}
	],
	"materials":[
		{
			"doubleSided":true,
			"extensions":{
				"KHR_materials_transmission":{
					"transmissionFactor":1
				},
				"KHR_materials_ior":{
					"ior":1.4500000476837158
				}
			},
			"name":"Material.001",
			"pbrMetallicRoughness":{
				"baseColorFactor":[
					1,
					0.9786862134933472,
					0.9163454174995422,
					1
				],
				"metallicFactor":0,
				"roughnessFactor":0
			}
		},
		{
			"doubleSided":true,
			"name":"Material.002",
			"pbrMetallicRoughness":{
				"baseColorFactor":[
					0.02909943088889122,
					0.02909943088889122,
					0.02909943088889122,
					1
				],
				"roughnessFactor":0.3709677457809448
			}
		},
		{
			"doubleSided":true,
			"extensions":{
				"KHR_materials_specular":{
					"specularColorFactor":[
						0,
						0,
						0
					]
				},
				"KHR_materials_ior":{
					"ior":1.4500000476837158
				}
			},
			"name":"Material.003",
			"pbrMetallicRoughness":{
				"baseColorTexture":{
					"index":0
				},
				"roughnessFactor":0.5
			}
		},
		{
			"alphaMode":"BLEND",
			"doubleSided":true,
			"extensions":{
				"KHR_materials_specular":{
					"specularColorFactor":[
						0,
						0,
						0
					]
				},
				"KHR_materials_ior":{
					"ior":1.4500000476837158
				}
			},
			"name":"Material.004",
			"pbrMetallicRoughness":{
				"baseColorTexture":{
					"index":1
				},
				"metallicFactor":0.4301075339317322,
				"roughnessFactor":0.5
			}
		},
		{
			"doubleSided":true,
			"extensions":{
				"KHR_materials_transmission":{
					"transmissionFactor":1
				},
				"KHR_materials_ior":{
					"ior":1.4500000476837158
				}
			},
			"name":"Material.005",
			"pbrMetallicRoughness":{
				"baseColorFactor":[
					1,
					0.5808892250061035,
					0.25798407196998596,
					1
				],
				"metallicFactor":0,
				"roughnessFactor":0
			}
		}
	],
	"meshes":[
		{
			"name":"Cylinder.005",
			"primitives":[
				{
					"attributes":{
						"POSITION":0,
						"NORMAL":1,
						"TEXCOORD_0":2
					},
					"indices":3,
					"material":0
				},
				{
					"attributes":{
						"POSITION":4,
						"NORMAL":5,
						"TEXCOORD_0":6
					},
					"indices":7,
					"material":1
				},
				{
					"attributes":{
						"POSITION":8,
						"NORMAL":9,
						"TEXCOORD_0":10
					},
					"indices":11,
					"material":2
				},
				{
					"attributes":{
						"POSITION":12,
						"NORMAL":13,
						"TEXCOORD_0":14
					},
					"indices":15,
					"material":3
				},
				{
					"attributes":{
						"POSITION":16,
						"NORMAL":17,
						"TEXCOORD_0":18
					},
					"indices":19,
					"material":4
				}
			]
		}
	],
	"textures":[
		{
			"sampler":0,
			"source":0
		},
		{
			"sampler":0,
			"source":1
		}
	],
	"images":[
		{
			"mimeType":"image/jpeg",
			"name":"1d9786cede2ff035985941577a3cb7ff",
			"uri":"texture/1d9786cede2ff035985941577a3cb7ff.jpg"
		},
		{
			"mimeType":"image/png",
			"name":"pngwing.com (1) copiar",
			"uri":"texture/pngwing_com%201%20copiar.png"
		}
	],
	"accessors":[
		{
			"bufferView":0,
			"componentType":5126,
			"count":134203,
			"max":[
				3.0968310832977295,
				0.4776257574558258,
				3.0993118286132812
			],
			"min":[
				-3.101792335510254,
				-18.065624237060547,
				-3.0993118286132812
			],
			"type":"VEC3"
		},
		{
			"bufferView":1,
			"componentType":5126,
			"count":134203,
			"type":"VEC3"
		},
		{
			"bufferView":2,
			"componentType":5126,
			"count":134203,
			"type":"VEC2"
		},
		{
			"bufferView":3,
			"componentType":5125,
			"count":800256,
			"type":"SCALAR"
		},
		{
			"bufferView":4,
			"componentType":5126,
			"count":21204,
			"max":[
				3.0648272037506104,
				-0.03387173265218735,
				3.0901291370391846
			],
			"min":[
				-3.1103177070617676,
				-16.338539123535156,
				-3.0850164890289307
			],
			"type":"VEC3"
		},
		{
			"bufferView":5,
			"componentType":5126,
			"count":21204,
			"type":"VEC3"
		},
		{
			"bufferView":6,
			"componentType":5126,
			"count":21204,
			"type":"VEC2"
		},
		{
			"bufferView":7,
			"componentType":5123,
			"count":122496,
			"type":"SCALAR"
		},
		{
			"bufferView":8,
			"componentType":5126,
			"count":2240,
			"max":[
				3.0648269653320312,
				-8.093539237976074,
				3.0901284217834473
			],
			"min":[
				-3.1103174686431885,
				-16.160072326660156,
				-3.0850167274475098
			],
			"type":"VEC3"
		},
		{
			"bufferView":9,
			"componentType":5126,
			"count":2240,
			"type":"VEC3"
		},
		{
			"bufferView":10,
			"componentType":5126,
			"count":2240,
			"type":"VEC2"
		},
		{
			"bufferView":11,
			"componentType":5123,
			"count":11520,
			"type":"SCALAR"
		},
		{
			"bufferView":12,
			"componentType":5126,
			"count":1440,
			"max":[
				1.4813685417175293,
				-2.735031843185425,
				1.5019721984863281
			],
			"min":[
				-1.5268563032150269,
				-3.8695454597473145,
				-1.5062551498413086
			],
			"type":"VEC3"
		},
		{
			"bufferView":13,
			"componentType":5126,
			"count":1440,
			"type":"VEC3"
		},
		{
			"bufferView":14,
			"componentType":5126,
			"count":1440,
			"type":"VEC2"
		},
		{
			"bufferView":15,
			"componentType":5123,
			"count":7680,
			"type":"SCALAR"
		},
		{
			"bufferView":16,
			"componentType":5126,
			"count":45272,
			"max":[
				2.9991490840911865,
				-2.734182596206665,
				3.001551389694214
			],
			"min":[
				-3.003953695297241,
				-17.864187240600586,
				-3.001551389694214
			],
			"type":"VEC3"
		},
		{
			"bufferView":17,
			"componentType":5126,
			"count":45272,
			"type":"VEC3"
		},
		{
			"bufferView":18,
			"componentType":5126,
			"count":45272,
			"type":"VEC2"
		},
		{
			"bufferView":19,
			"componentType":5123,
			"count":268992,
			"type":"SCALAR"
		}
	],
	"bufferViews":[
		{
			"buffer":0,
			"byteLength":1610436,
			"byteOffset":0,
			"target":34962
		},
		{
			"buffer":0,
			"byteLength":1610436,
			"byteOffset":1610436,
			"target":34962
		},
		{
			"buffer":0,
			"byteLength":1073624,
			"byteOffset":3220872,
			"target":34962
		},
		{
			"buffer":0,
			"byteLength":3201024,
			"byteOffset":4294496,
			"target":34963
		},
		{
			"buffer":0,
			"byteLength":254448,
			"byteOffset":7495520,
			"target":34962
		},
		{
			"buffer":0,
			"byteLength":254448,
			"byteOffset":7749968,
			"target":34962
		},
		{
			"buffer":0,
			"byteLength":169632,
			"byteOffset":8004416,
			"target":34962
		},
		{
			"buffer":0,
			"byteLength":244992,
			"byteOffset":8174048,
			"target":34963
		},
		{
			"buffer":0,
			"byteLength":26880,
			"byteOffset":8419040,
			"target":34962
		},
		{
			"buffer":0,
			"byteLength":26880,
			"byteOffset":8445920,
			"target":34962
		},
		{
			"buffer":0,
			"byteLength":17920,
			"byteOffset":8472800,
			"target":34962
		},
		{
			"buffer":0,
			"byteLength":23040,
			"byteOffset":8490720,
			"target":34963
		},
		{
			"buffer":0,
			"byteLength":17280,
			"byteOffset":8513760,
			"target":34962
		},
		{
			"buffer":0,
			"byteLength":17280,
			"byteOffset":8531040,
			"target":34962
		},
		{
			"buffer":0,
			"byteLength":11520,
			"byteOffset":8548320,
			"target":34962
		},
		{
			"buffer":0,
			"byteLength":15360,
			"byteOffset":8559840,
			"target":34963
		},
		{
			"buffer":0,
			"byteLength":543264,
			"byteOffset":8575200,
			"target":34962
		},
		{
			"buffer":0,
			"byteLength":543264,
			"byteOffset":9118464,
			"target":34962
		},
		{
			"buffer":0,
			"byteLength":362176,
			"byteOffset":9661728,
			"target":34962
		},
		{
			"buffer":0,
			"byteLength":537984,
			"byteOffset":10023904,
			"target":34963
		}
	],
	"samplers":[
		{
			"magFilter":9729,
			"minFilter":9987
		}
	],
	"buffers":[
		{
			"byteLength":10561888,
			"uri":"jj.bin"
		}
	]
}
