{
	"asset":{
		"generator":"Khronos glTF Blender I/O v3.6.27",
		"version":"2.0"
	},
	"extensionsUsed":[
		"KHR_materials_emissive_strength"
	],
	"scene":0,
	"scenes":[
		{
			"name":"Scene",
			"nodes":[
				0
			]
		}
	],
	"nodes":[
		{
			"mesh":0,
			"name":"Text",
			"rotation":[
				-0.391385018825531,
				-0.033379927277565,
				-0.2440960705280304,
				0.8866344690322876
			],
			"scale":[
				0.26671841740608215,
				1.0736384391784668,
				0.26671838760375977
			],
			"translation":[
				0.3526517152786255,
				0.7991429567337036,
				-0.39548444747924805
			]
		}
	],
	"animations":[
		{
			"channels":[
				{
					"sampler":0,
					"target":{
						"node":0,
						"path":"translation"
					}
				},
				{
					"sampler":1,
					"target":{
						"node":0,
						"path":"rotation"
					}
				}
			],
			"name":"TextAction",
			"samplers":[
				{
					"input":8,
					"interpolation":"STEP",
					"output":9
				},
				{
					"input":10,
					"interpolation":"LINEAR",
					"output":11
				}
			]
		}
	],
	"materials":[
		{
			"doubleSided":true,
			"emissiveFactor":[
				0.10254768669178903,
				1,
				0.09708291914317735
			],
			"extensions":{
				"KHR_materials_emissive_strength":{
					"emissiveStrength":2.23999997138975
				}
			},
			"name":"Material.001",
			"pbrMetallicRoughness":{
				"baseColorFactor":[
					0,
					0,
					0,
					1
				]
			}
		},
		{
			"doubleSided":true,
			"name":"Rough Plastic",
			"pbrMetallicRoughness":{
				"baseColorFactor":[
					0,
					0,
					0,
					1
				],
				"metallicFactor":0,
				"roughnessFactor":0
			}
		}
	],
	"meshes":[
		{
			"name":"Text",
			"primitives":[
				{
					"attributes":{
						"POSITION":0,
						"NORMAL":1,
						"TEXCOORD_0":2
					},
					"indices":3,
					"material":0
				},
				{
					"attributes":{
						"POSITION":4,
						"NORMAL":5,
						"TEXCOORD_0":6
					},
					"indices":7,
					"material":1
				}
			]
		}
	],
	"accessors":[
		{
			"bufferView":0,
			"componentType":5126,
			"count":71267,
			"max":[
				0.5648232698440552,
				0,
				1.4028732776641846
			],
			"min":[
				-2.4115614891052246,
				-0.7527665495872498,
				-1.5621416568756104
			],
			"type":"VEC3"
		},
		{
			"bufferView":1,
			"componentType":5126,
			"count":71267,
			"type":"VEC3"
		},
		{
			"bufferView":2,
			"componentType":5126,
			"count":71267,
			"type":"VEC2"
		},
		{
			"bufferView":3,
			"componentType":5125,
			"count":142335,
			"type":"SCALAR"
		},
		{
			"bufferView":4,
			"componentType":5126,
			"count":38627,
			"max":[
				0.5639626979827881,
				0.006400257349014282,
				1.5584396123886108
			],
			"min":[
				-2.5529165267944336,
				-0.7679096460342407,
				-1.6402490139007568
			],
			"type":"VEC3"
		},
		{
			"bufferView":5,
			"componentType":5126,
			"count":38627,
			"type":"VEC3"
		},
		{
			"bufferView":6,
			"componentType":5126,
			"count":38627,
			"type":"VEC2"
		},
		{
			"bufferView":7,
			"componentType":5123,
			"count":112092,
			"type":"SCALAR"
		},
		{
			"bufferView":8,
			"componentType":5126,
			"count":2,
			"max":[
				10.375
			],
			"min":[
				0.041666666666666664
			],
			"type":"SCALAR"
		},
		{
			"bufferView":9,
			"componentType":5126,
			"count":2,
			"type":"VEC3"
		},
		{
			"bufferView":10,
			"componentType":5126,
			"count":249,
			"max":[
				10.375
			],
			"min":[
				0.041666666666666664
			],
			"type":"SCALAR"
		},
		{
			"bufferView":11,
			"componentType":5126,
			"count":249,
			"type":"VEC4"
		}
	],
	"bufferViews":[
		{
			"buffer":0,
			"byteLength":855204,
			"byteOffset":0,
			"target":34962
		},
		{
			"buffer":0,
			"byteLength":855204,
			"byteOffset":855204,
			"target":34962
		},
		{
			"buffer":0,
			"byteLength":570136,
			"byteOffset":1710408,
			"target":34962
		},
		{
			"buffer":0,
			"byteLength":569340,
			"byteOffset":2280544,
			"target":34963
		},
		{
			"buffer":0,
			"byteLength":463524,
			"byteOffset":2849884,
			"target":34962
		},
		{
			"buffer":0,
			"byteLength":463524,
			"byteOffset":3313408,
			"target":34962
		},
		{
			"buffer":0,
			"byteLength":309016,
			"byteOffset":3776932,
			"target":34962
		},
		{
			"buffer":0,
			"byteLength":224184,
			"byteOffset":4085948,
			"target":34963
		},
		{
			"buffer":0,
			"byteLength":8,
			"byteOffset":4310132
		},
		{
			"buffer":0,
			"byteLength":24,
			"byteOffset":4310140
		},
		{
			"buffer":0,
			"byteLength":996,
			"byteOffset":4310164
		},
		{
			"buffer":0,
			"byteLength":3984,
			"byteOffset":4311160
		}
	],
	"buffers":[
		{
			"byteLength":4315144,
			"uri":"cube.bin"
		}
	]
}
